<svg width="310" height="48" viewBox="0 0 310 48" fill="none" xmlns="http://www.w3.org/2000/svg">
<path d="M0 4C0 1.79086 1.79086 0 4 0H306C308.209 0 310 1.79086 310 4V44C310 46.2091 308.209 48 306 48H4C1.79086 48 0 46.2091 0 44V4Z" fill="#F9E001"/>
<path fill-rule="evenodd" clip-rule="evenodd" d="M92.0001 16C87.0292 16 83 19.1294 83 22.989C83 25.3894 84.5585 27.5054 86.9316 28.764L85.9331 32.4309C85.8449 32.7549 86.2135 33.0131 86.4965 32.8254L90.8734 29.9214C91.2428 29.9572 91.6182 29.9781 92.0001 29.9781C96.9706 29.9781 101 26.8488 101 22.989C101 19.1294 96.9706 16 92.0001 16Z" fill="black"/>
<path d="M109.599 17.548H116.367C116.367 22.092 115.295 25.884 109.807 28.684L108.687 27.052C111.103 25.852 112.527 24.476 113.359 22.86L109.087 23.276L108.815 21.484L113.967 21.18C114.111 20.572 114.223 19.932 114.271 19.228H109.599V17.548ZM122.351 21.756V23.5H120.287V30.844H118.175V16.124H120.287V21.756H122.351ZM124.317 17.548H131.085C131.085 22.092 130.013 25.884 124.525 28.684L123.405 27.052C125.821 25.852 127.245 24.476 128.077 22.86L123.805 23.276L123.533 21.484L128.685 21.18C128.829 20.572 128.941 19.932 128.989 19.228H124.317V17.548ZM137.069 21.756V23.5H135.005V30.844H132.893V16.124H135.005V21.756H137.069ZM141.436 20.956C141.436 22.46 142.828 23.34 144.844 23.34C146.876 23.34 148.268 22.46 148.268 20.956C148.268 19.452 146.876 18.572 144.844 18.572C142.828 18.572 141.436 19.452 141.436 20.956ZM145.9 27.452H151.532V29.164H138.188V27.452H143.788V24.956C141.196 24.636 139.356 23.148 139.356 20.956C139.356 18.492 141.708 16.892 144.844 16.892C147.996 16.892 150.348 18.492 150.348 20.956C150.348 23.148 148.508 24.652 145.9 24.956V27.452ZM160.619 27.532H166.251V29.26H152.907V27.532H158.507V25.34H154.443V20.348H162.667V18.764H154.427V17.084H164.747V21.996H156.539V23.644H165.083V25.34H160.619V27.532ZM179.399 20.028V16.46H181.367V30.236H179.399V25.404H177.351V23.708H179.399V21.708H177.623C176.967 24.14 175.495 26.188 172.743 27.82L171.543 26.348C174.455 24.572 175.735 22.444 176.007 19.564H172.375V17.884H178.103C178.103 18.636 178.055 19.34 177.975 20.028H179.399ZM182.423 16.124H184.423V30.876H182.423V16.124ZM199.061 20.572L198.293 22.22C195.813 21.868 194.021 20.844 193.093 19.372C192.165 20.828 190.373 21.868 187.909 22.22L187.125 20.572C190.437 20.172 192.021 18.492 192.021 16.828V16.396H194.181V16.828C194.181 18.54 195.733 20.172 199.061 20.572ZM187.941 27.66V25.996H198.181V30.892H196.069V27.66H187.941ZM194.165 23.276H199.797V24.956H186.469V23.276H192.053V21.372H194.165V23.276ZM205.444 26.14C206.436 26.14 207.156 25.468 207.156 24.332C207.156 23.228 206.436 22.54 205.444 22.54C204.452 22.54 203.716 23.228 203.716 24.348C203.716 25.468 204.452 26.14 205.444 26.14ZM205.444 20.828C207.572 20.828 209.156 22.284 209.156 24.332C209.156 26.412 207.572 27.868 205.444 27.868C203.3 27.868 201.7 26.412 201.7 24.332C201.7 22.284 203.3 20.828 205.444 20.828ZM206.484 16.396V18.316H209.684V19.996H201.108V18.316H204.372V16.396H206.484ZM214.868 21.9V23.644H212.756V30.876H210.644V16.14H212.756V21.9H214.868ZM216.723 17.66H223.795C223.795 22.172 222.275 25.852 217.043 28.38L215.939 26.716C219.699 24.908 221.331 22.604 221.635 19.34H216.723V17.66ZM226.051 16.124H228.179V30.86H226.051V16.124Z" fill="#262626"/>
</svg>
