<svg width="124" height="44" viewBox="0 0 124 44" fill="none" xmlns="http://www.w3.org/2000/svg">
<path d="M28.9215 40.4341H21.7274V23.5577L18.1574 24.0445V19.4468L21.7274 18.9059V4.13909L28.9215 2.94909V40.4341ZM0.19919 31.0223V28.48L2.74146 28.2636V13.7132L7.98828 13.1182V27.8309L11.2337 27.5605V12.7936L16.4265 12.1986V27.1818L20.321 26.8573V34.5923H2.95783C1.44328 34.5923 0.19919 33.0236 0.19919 31.0223ZM0.19919 11.2791V5.54545L19.0228 3.00318V9.11545L0.19919 11.2791ZM31.4637 42.5977V1.43454L38.6578 0.244543V42.5977H31.4637ZM79.824 42.5977H71.0072V1.43454L79.824 0.244543V42.5977ZM58.6203 19.9336C58.6744 18.4732 58.7285 17.4995 58.7285 17.0127C58.7285 14.4164 58.4581 12.5773 57.9712 11.4414C57.4844 10.3595 56.7812 9.92681 55.9699 10.1432C54.9422 10.4136 54.0767 11.4955 53.3735 13.3886C52.6703 15.2818 52.1835 18.0945 51.9672 21.7186C51.9131 23.1791 51.859 24.1527 51.859 24.6395C51.859 26.9655 52.0753 28.6964 52.5081 29.8323C52.9408 30.9682 53.4817 31.5632 54.1849 31.5632C55.3208 31.5632 56.2944 30.5895 57.1058 28.6964C57.9172 26.8032 58.404 23.8823 58.6203 19.9336ZM43.8535 21.7727C43.8535 9.44 48.9381 3.65227 56.2944 3.65227C62.5149 3.65227 66.6799 8.79091 66.734 19.8795C66.734 32.2123 61.6494 38 54.2931 38C48.0726 38 43.9076 32.8614 43.8535 21.7727ZM103.875 26.1541L113.99 25.2886C112.638 29.1291 111.448 31.8336 110.529 33.5105C114.802 34.43 119.075 35.4577 123.294 36.4855L118.48 42.9223C113.774 41.6241 109.501 40.4341 105.66 39.2982C103.605 40.7586 100.63 41.8945 96.7895 42.7059C95.275 43.0305 93.8686 43.1927 92.5704 43.1927C87.1072 43.1927 83.9159 40.4882 83.9159 37.405C83.9159 33.5105 87.7563 31.0764 94.734 31.0764C96.4109 31.0764 98.6827 31.2927 101.604 31.7795C102.631 29.9945 103.389 28.1014 103.875 26.1541ZM90.569 37.1345C90.569 37.8377 91.2722 38.3245 92.5704 38.3245C93.4359 38.3245 94.5177 38.0541 95.87 37.5132C96.3027 37.2968 96.7895 37.0264 97.2763 36.7559L96.0322 36.2691C95.2209 35.8905 94.3554 35.7282 93.4359 35.7282C91.759 35.7282 90.569 36.3232 90.569 37.1345ZM120.914 22.9086L112.097 23.9364V1.43454L120.914 0.244543V22.9086ZM103.659 14.6327L92.2459 15.9309V18.4732L107.391 16.6882V23.6118C101.063 24.4773 96.3568 25.0723 93.2736 25.3968C92.1918 25.5591 91.11 25.6132 90.0281 25.5591C87.0531 25.5591 84.7272 23.3955 84.7272 20.4205V12.6855L96.0863 11.1709V9.44L84.7272 10.6841V4.95045L103.659 2.40818V14.6327Z" fill="white"/>
</svg>
