<svg width="390" height="844" viewBox="0 0 390 844" fill="none" xmlns="http://www.w3.org/2000/svg">
<g clip-path="url(#clip0_2598_33325)">
<rect width="390" height="844" fill="#EBFFFE"/>
<path opacity="0.05" fill-rule="evenodd" clip-rule="evenodd" d="M-0.498932 237.351C-0.498932 183.31 43.3098 139.501 97.3507 139.501H164.035C207.64 139.501 242.988 174.849 242.988 218.454C242.988 253.965 214.201 282.753 178.689 282.753H131.268C82.2526 282.753 42.5176 322.488 42.5176 371.503C42.5176 420.519 82.2526 460.254 131.268 460.254H178.689C312.232 460.254 420.489 351.996 420.489 218.454C420.489 76.8183 305.671 -38 164.035 -38H97.3507C-54.7213 -38 -178 85.2786 -178 237.351V627.103C-178 676.119 -138.265 715.854 -89.2495 715.854C-40.2339 715.854 -0.498932 676.119 -0.498932 627.103V237.351ZM278.706 506.561C245.342 474.964 192.679 476.395 161.082 509.76C129.484 543.124 130.916 595.786 164.28 627.384C199.998 661.211 257.585 695.78 314.235 715.651C357.597 730.861 405.079 708.039 420.289 664.677C435.499 621.315 412.677 573.833 369.315 558.624C331.831 545.476 295.284 522.262 278.706 506.561Z" fill="#28D7D2"/>
<rect x="128" y="831" width="134" height="5" rx="2.5" fill="black"/>
<path d="M122.96 349.48H131.504V344.344H133.28V349.48H141.992V350.992H122.96V349.48ZM123.752 343.048C127.328 342.4 131.456 339.328 131.456 335.8V334.144H133.328V335.8C133.328 339.328 137.504 342.4 141.056 343.048L140.264 344.56C137.12 343.864 133.76 341.704 132.392 338.68C131.024 341.68 127.664 343.864 124.52 344.56L123.752 343.048ZM148.905 334.096C151.665 334.096 153.681 336.112 153.681 339.016C153.681 341.92 151.665 343.936 148.905 343.936C146.145 343.936 144.153 341.92 144.153 339.016C144.153 336.112 146.145 334.096 148.905 334.096ZM145.785 339.016C145.785 340.984 147.105 342.424 148.905 342.424C150.705 342.424 152.049 340.984 152.049 339.016C152.049 337.024 150.705 335.608 148.905 335.608C147.105 335.608 145.785 337.024 145.785 339.016ZM147.561 347.92V346.456H161.601V353.752H159.801V347.92H147.561ZM155.385 345.112V333.16H157.089V338.176H159.873V332.776H161.601V345.256H159.873V339.688H157.089V345.112H155.385ZM167.361 334.432H181.497V335.92H169.161V342.592H181.737V344.08H175.281V349.552H183.945V351.064H164.913V349.552H173.505V344.08H167.361V334.432ZM191.277 349.144H199.533V344.224H202.173V349.144H210.621V351.304H191.277V349.144ZM191.853 342.544C196.293 341.824 199.461 338.584 199.461 335.416V333.832H202.245V335.416C202.245 338.632 205.437 341.824 209.877 342.544L208.749 344.776C205.149 344.056 202.245 341.968 200.853 339.208C199.437 341.968 196.509 344.056 192.933 344.776L191.853 342.544ZM212.254 342.4H231.55V344.512H223.198V346.36C226.99 346.6 229.246 347.92 229.246 350.128C229.246 352.552 226.462 353.92 221.878 353.92C217.27 353.92 214.486 352.552 214.486 350.128C214.486 347.92 216.742 346.6 220.558 346.36V344.512H212.254V342.4ZM213.166 339.328C217.102 338.968 219.598 337.36 220.03 335.608H214.006V333.52H229.822V335.608H223.773C224.206 337.384 226.678 338.968 230.638 339.328L229.702 341.392C225.862 340.984 223.03 339.448 221.902 337.288C220.774 339.448 217.942 340.984 214.078 341.392L213.166 339.328ZM217.15 350.128C217.15 351.328 218.806 351.928 221.878 351.928C224.926 351.928 226.582 351.328 226.582 350.128C226.582 348.904 224.926 348.304 221.878 348.304C218.806 348.304 217.15 348.904 217.15 350.128ZM247.702 332.752H249.502V341.44H252.982V342.952H249.502V353.752H247.702V332.752ZM233.254 337.624V336.136H238.63V332.992H240.454V336.136H245.686V337.624H233.254ZM234.478 344.224C234.478 341.392 236.638 339.424 239.566 339.424C242.518 339.424 244.654 341.392 244.654 344.224C244.654 347.056 242.518 349.024 239.566 349.024C236.638 349.024 234.478 347.056 234.478 344.224ZM236.206 344.224C236.206 346.144 237.598 347.512 239.566 347.512C241.51 347.512 242.926 346.144 242.926 344.224C242.926 342.304 241.51 340.912 239.566 340.912C237.598 340.912 236.206 342.304 236.206 344.224ZM270.431 332.752H272.159V353.752H270.431V332.752ZM254.375 347.896C258.911 345.184 261.191 341.344 261.527 336.928H255.239V335.44H263.327C263.327 337.504 262.991 339.52 262.271 341.392H266.063V333.304H267.767V352.648H266.063V342.856H261.623C260.351 345.304 258.335 347.488 255.431 349.216L254.375 347.896Z" fill="#28D7D2"/>
<path d="M131.604 405.65H113.454C112.104 405.65 110.904 404.75 110.904 402.8C110.904 400.65 112.104 399.75 113.454 399.75H115.804C115.154 395.5 114.104 388.6 114.104 387.45C114.104 386.1 115.204 384.85 117.554 384.85C118.354 384.85 119.604 385.15 119.954 386.65C120.254 388.05 121.104 396.35 121.554 399.75H123.104C123.554 396.35 124.404 388.05 124.704 386.65C125.054 385.15 126.304 384.85 127.104 384.85C129.454 384.85 130.554 386.1 130.554 387.45C130.554 388.6 129.454 395.6 128.804 399.75H131.604C132.954 399.75 134.204 400.6 134.204 402.8C134.204 404.8 132.954 405.65 131.604 405.65ZM136.104 394.05H133.854C132.304 394.05 131.304 393.15 131.304 391.1C131.304 389.05 132.304 388.2 133.854 388.2H136.104V375.5C136.104 374 137.004 373 139.004 373C141.004 373 141.954 374 141.954 375.5V411.75C141.954 413.25 141.004 414.25 139.004 414.25C137.004 414.25 136.104 413.25 136.104 411.75V394.05ZM145.304 412.45V375.2C145.304 373.7 146.254 372.7 148.254 372.7C150.254 372.7 151.204 373.7 151.204 375.2V412.45C151.204 413.95 150.254 414.95 148.254 414.95C146.254 414.95 145.304 413.95 145.304 412.45ZM131.304 382.4H113.754C112.404 382.4 111.204 381.5 111.204 379.55C111.204 377.4 112.404 376.5 113.754 376.5H131.304C132.654 376.5 133.904 377.35 133.904 379.55C133.904 381.55 132.654 382.4 131.304 382.4ZM186.229 412.45V375.2C186.229 373.7 187.229 372.7 189.229 372.7C191.229 372.7 192.229 373.7 192.229 375.2V412.45C192.229 413.95 191.229 414.95 189.229 414.95C187.229 414.95 186.229 413.95 186.229 412.45ZM155.279 391.05C155.279 380.2 160.529 375.95 167.829 375.95C175.179 375.95 180.229 380.15 180.229 391.05C180.229 402.4 175.179 406.2 167.829 406.2C160.529 406.2 155.279 402.35 155.279 391.05ZM174.279 391.05C174.279 384.55 171.829 381.75 167.829 381.75C163.829 381.75 161.329 384.55 161.329 391.05C161.329 397.55 163.829 400.4 167.829 400.4C171.829 400.4 174.279 397.55 174.279 391.05ZM216.054 379.9H202.704C201.304 379.9 200.304 379.05 200.304 377.1C200.304 375 201.304 374.3 202.704 374.3H219.004C221.804 374.3 222.904 376.35 222.904 377.65V387.25C222.904 389.1 221.554 390.05 220.254 390.05H206.104V393.65C206.104 395.05 206.654 395.7 208.254 395.7C213.654 395.7 218.654 395.4 223.154 394.35C224.954 393.95 226.804 394.6 226.804 396.85C226.804 398.4 226.254 399.4 224.604 399.85C219.954 401.1 213.804 401.55 207.554 401.55C203.004 401.55 200.104 399.85 200.104 395.65V387.25C200.104 385.45 200.954 384.5 202.704 384.5H216.954V380.8C216.954 380.15 216.604 379.95 216.054 379.9ZM229.554 400.4V375.2C229.554 373.7 230.554 372.7 232.554 372.7C234.554 372.7 235.554 373.7 235.554 375.2V400.4C235.554 401.9 234.554 402.9 232.554 402.9C230.554 402.9 229.554 401.9 229.554 400.4ZM206.104 418.25C204.554 418.45 202.954 417.3 202.954 414.9C202.954 413.5 203.754 412.6 204.954 412.35C212.404 410.85 217.154 406.9 219.054 403.85C219.654 402.85 220.354 402.05 221.804 402.05C223.704 402.05 225.304 403.2 225.304 404.75C225.304 405.55 225.154 406.3 224.454 407.5C221.404 412.55 214.204 417.15 206.104 418.25ZM224.304 414.65C222.954 414 222.654 413.2 222.654 412.15C222.654 410.65 223.654 409.1 225.854 409.4C228.904 409.8 233.704 411.5 236.154 412.65C237.754 413.4 238.054 414.3 238.054 415.5C238.054 416.9 237.204 418.85 235.054 418.85C234.254 418.85 233.404 418.5 232.954 418.3C230.354 417.15 226.004 415.45 224.304 414.65Z" fill="url(#paint0_linear_2598_33325)"/>
<path fill-rule="evenodd" clip-rule="evenodd" d="M259 388.91C259 384.817 262.318 381.499 266.411 381.499H270.846C274.245 381.499 277 384.254 277 387.653C277 390.513 274.681 392.832 271.821 392.832H268.667C265.905 392.832 263.667 395.071 263.667 397.832C263.667 400.594 265.905 402.832 268.667 402.832H271.821C280.204 402.832 287 396.036 287 387.653C287 378.731 279.768 371.499 270.846 371.499H266.411C256.795 371.499 249 379.294 249 388.91V414.832C249 417.594 251.239 419.832 254 419.832C256.761 419.832 259 417.594 259 414.832V388.91ZM278.105 407.202C276.1 405.303 272.935 405.389 271.036 407.394C269.138 409.399 269.224 412.564 271.229 414.463C273.543 416.654 277.305 418.917 281.012 420.217C283.617 421.131 286.471 419.76 287.385 417.154C288.299 414.548 286.927 411.695 284.322 410.781C281.767 409.885 279.269 408.304 278.105 407.202Z" fill="url(#paint1_linear_2598_33325)"/>
</g>
<defs>
<linearGradient id="paint0_linear_2598_33325" x1="96.4733" y1="379.92" x2="198.766" y2="483.846" gradientUnits="userSpaceOnUse">
<stop stop-color="#22D6D1"/>
<stop offset="1" stop-color="#87FAF7"/>
</linearGradient>
<linearGradient id="paint1_linear_2598_33325" x1="245.649" y1="385.056" x2="296.507" y2="407.129" gradientUnits="userSpaceOnUse">
<stop stop-color="#22D6D1"/>
<stop offset="1" stop-color="#87FAF7"/>
</linearGradient>
<clipPath id="clip0_2598_33325">
<rect width="390" height="844" fill="white"/>
</clipPath>
</defs>
</svg>
