<svg width="158" height="60" viewBox="0 0 158 60" fill="none" xmlns="http://www.w3.org/2000/svg">
<g filter="url(#filter0_d_1004_21524)">
<path d="M52.6214 49.1123H43.0473V0.430449H52.6214V49.1123ZM4.53461 40.7282L3.9937 32.0736H7.02279H8.1587L7.67188 14.8186H16.5969L17.0837 31.7491C17.5164 31.7491 18.0032 31.695 18.436 31.695L18.9228 14.8186H27.8478L27.4151 30.2345C28.3346 30.0182 29.2542 29.7477 30.1737 29.4773L32.0669 36.9959C25.9005 39.3759 17.5705 40.7282 8.48324 40.7282H4.53461ZM30.1196 12.9255H5.23779V4.54136H30.1196V12.9255ZM32.3373 26.1236H28.8214V17.1986H32.3373V0.971361H41.8032V46.9486H32.3373V26.1236ZM101.314 49.1123V0.484543H91.0365V49.1123H101.314ZM56.4724 22.3373C56.4724 8.70636 63.1256 2.43181 72.0506 2.43181C80.9756 2.43181 87.6288 8.70636 87.6288 22.3373C87.6288 35.9682 80.9756 42.2427 72.0506 42.2427C63.1256 42.2427 56.4724 35.9682 56.4724 22.3373ZM66.4793 22.3373C66.4793 29.8559 68.2102 32.7768 72.0506 32.7768C75.8911 32.7768 77.622 29.8559 77.622 22.3373C77.622 14.8186 75.8911 11.8977 72.0506 11.8977C68.2102 11.8977 66.4793 14.8186 66.4793 22.3373ZM150.223 33.9668H140.216V26.0155C134.536 28.8823 125.719 30.4509 113.495 30.4509H108.681V11.5191H124.043V9.51772H108.681V1.83681H134.049V19.0377H118.688V21.6882C126.206 21.6882 135.185 20.7145 140.216 17.7395V0.430449H150.223V33.9668ZM112.575 51.0595L109.222 42.1886C122.095 40.025 126.909 35.5895 126.909 31.7491V31.1541H137.133V32.5605C137.187 38.9973 140.757 40.62 143.948 40.8905C145.949 41.0527 148.654 41.1609 150.493 39.9168L152.657 41.215C153.414 47.1109 147.68 51.2218 140.703 50.14C136.105 49.4368 133.238 47.1109 132.102 43.0541C126.693 47.9764 118.093 50.4105 112.575 51.0595Z" fill="white"/>
</g>
<defs>
<filter id="filter0_d_1004_21524" x="-0.00585938" y="0.43045" width="157.42" height="58.7914" filterUnits="userSpaceOnUse" color-interpolation-filters="sRGB">
<feFlood flood-opacity="0" result="BackgroundImageFix"/>
<feColorMatrix in="SourceAlpha" type="matrix" values="0 0 0 0 0 0 0 0 0 0 0 0 0 0 0 0 0 0 127 0" result="hardAlpha"/>
<feOffset dy="4"/>
<feGaussianBlur stdDeviation="2"/>
<feComposite in2="hardAlpha" operator="out"/>
<feColorMatrix type="matrix" values="0 0 0 0 0 0 0 0 0 0 0 0 0 0 0 0 0 0 0.25 0"/>
<feBlend mode="normal" in2="BackgroundImageFix" result="effect1_dropShadow_1004_21524"/>
<feBlend mode="normal" in="SourceGraphic" in2="effect1_dropShadow_1004_21524" result="shape"/>
</filter>
</defs>
</svg>
