<svg width="310" height="48" viewBox="0 0 310 48" fill="none" xmlns="http://www.w3.org/2000/svg">
<rect width="310" height="48" rx="4" fill="black"/>
<path d="M93.5806 18.7049C93.0899 18.7049 92.6289 18.7802 92.1975 18.9307C91.7661 19.0729 91.377 19.2193 91.0302 19.3699C90.6834 19.5204 90.3789 19.5957 90.1166 19.5957C89.846 19.5957 89.5414 19.5246 89.2031 19.3824C88.8732 19.2402 88.5179 19.1022 88.1373 18.9684C87.7566 18.8262 87.3506 18.7551 86.9192 18.7551C86.1071 18.7551 85.3204 18.9767 84.5591 19.42C83.8063 19.855 83.1888 20.5032 82.7066 21.3647C82.2245 22.2179 81.9834 23.276 81.9834 24.539C81.9834 25.7183 82.1822 26.8893 82.5798 28.052C82.9858 29.2062 83.4722 30.1849 84.0389 30.9878C84.5295 31.6653 85.0075 32.2466 85.4727 32.7318C85.9379 33.2169 86.4793 33.4595 87.0968 33.4595C87.5028 33.4595 87.8539 33.3925 88.1499 33.2587C88.4545 33.1249 88.7717 32.9911 89.1016 32.8572C89.4399 32.7234 89.8586 32.6565 90.3577 32.6565C90.8737 32.6565 91.284 32.7234 91.5885 32.8572C91.893 32.9827 92.1891 33.1123 92.4767 33.2462C92.7643 33.3716 93.1322 33.4344 93.5806 33.4344C94.2488 33.4344 94.8198 33.1834 95.2935 32.6816C95.7756 32.1797 96.224 31.6319 96.6384 31.038C97.1121 30.3521 97.4505 29.729 97.6535 29.1686C97.865 28.6082 97.975 28.3113 97.9834 28.2778C97.9665 28.2694 97.8227 28.1942 97.552 28.052C97.2898 27.9098 96.9853 27.6881 96.6384 27.387C96.3001 27.0775 95.9998 26.6719 95.7376 26.17C95.4838 25.6681 95.3569 25.0576 95.3569 24.3382C95.3569 23.7109 95.4584 23.1714 95.6614 22.7197C95.8645 22.2597 96.1013 21.8833 96.372 21.5906C96.6427 21.2895 96.888 21.0636 97.1079 20.9131C97.3279 20.7541 97.4505 20.6621 97.4759 20.637C97.036 20.0097 96.5454 19.5622 96.004 19.2946C95.4711 19.0186 94.9805 18.8513 94.5322 18.7927C94.0839 18.7342 93.7667 18.7049 93.5806 18.7049ZM92.8827 17.1115C93.1872 16.7435 93.4368 16.3253 93.6313 15.8569C93.8259 15.3801 93.9231 14.8908 93.9231 14.3889C93.9231 14.2384 93.9105 14.1087 93.8851 14C93.3945 14.0167 92.8785 14.1631 92.3371 14.4391C91.7957 14.7151 91.3474 15.0623 90.9921 15.4805C90.713 15.79 90.4635 16.1831 90.2435 16.6598C90.0236 17.1282 89.9136 17.6134 89.9136 18.1152C89.9136 18.1905 89.9179 18.2616 89.9263 18.3285C89.9348 18.3954 89.9432 18.4414 89.9517 18.4665C90.0363 18.4832 90.1251 18.4916 90.2181 18.4916C90.6665 18.4916 91.1402 18.362 91.6392 18.1027C92.1383 17.835 92.5528 17.5046 92.8827 17.1115Z" fill="white"/>
<path d="M106.796 29.5L110.71 18.2266H112.718V20.4766H112.03L109.272 29.5H106.796ZM108.89 26.7656L109.468 25H114.679L115.257 26.7656H108.89ZM114.921 29.5L112.171 20.4766V18.2266H113.483L117.405 29.5H114.921ZM119.093 32.3516V20.8984H121.374V22.2266H121.515C121.666 21.9193 121.864 21.6562 122.108 21.4375C122.358 21.2188 122.65 21.0521 122.983 20.9375C123.317 20.8177 123.687 20.7578 124.093 20.7578C124.812 20.7578 125.431 20.9375 125.952 21.2969C126.473 21.6562 126.874 22.1667 127.155 22.8281C127.442 23.4844 127.585 24.2708 127.585 25.1875V25.2031C127.585 26.125 127.444 26.9167 127.163 27.5781C126.882 28.2396 126.481 28.7474 125.96 29.1016C125.439 29.4557 124.817 29.6328 124.093 29.6328C123.697 29.6328 123.33 29.5729 122.991 29.4531C122.658 29.3281 122.364 29.1536 122.108 28.9297C121.858 28.7057 121.66 28.4375 121.515 28.125H121.374V32.3516H119.093ZM123.312 27.7422C123.718 27.7422 124.064 27.6406 124.351 27.4375C124.642 27.2344 124.866 26.9427 125.022 26.5625C125.184 26.1823 125.265 25.7292 125.265 25.2031V25.1875C125.265 24.6615 125.184 24.2083 125.022 23.8281C124.866 23.4479 124.642 23.1562 124.351 22.9531C124.064 22.75 123.718 22.6484 123.312 22.6484C122.91 22.6484 122.562 22.75 122.265 22.9531C121.973 23.1562 121.746 23.4479 121.585 23.8281C121.429 24.2031 121.351 24.6562 121.351 25.1875V25.2031C121.351 25.724 121.431 26.1771 121.593 26.5625C121.754 26.9427 121.981 27.2344 122.272 27.4375C122.569 27.6406 122.916 27.7422 123.312 27.7422ZM129.452 32.3516V20.8984H131.733V22.2266H131.874C132.025 21.9193 132.223 21.6562 132.468 21.4375C132.718 21.2188 133.009 21.0521 133.343 20.9375C133.676 20.8177 134.046 20.7578 134.452 20.7578C135.171 20.7578 135.791 20.9375 136.312 21.2969C136.832 21.6562 137.233 22.1667 137.515 22.8281C137.801 23.4844 137.944 24.2708 137.944 25.1875V25.2031C137.944 26.125 137.804 26.9167 137.522 27.5781C137.241 28.2396 136.84 28.7474 136.319 29.1016C135.799 29.4557 135.176 29.6328 134.452 29.6328C134.056 29.6328 133.689 29.5729 133.351 29.4531C133.017 29.3281 132.723 29.1536 132.468 28.9297C132.218 28.7057 132.02 28.4375 131.874 28.125H131.733V32.3516H129.452ZM133.671 27.7422C134.077 27.7422 134.424 27.6406 134.71 27.4375C135.002 27.2344 135.226 26.9427 135.382 26.5625C135.543 26.1823 135.624 25.7292 135.624 25.2031V25.1875C135.624 24.6615 135.543 24.2083 135.382 23.8281C135.226 23.4479 135.002 23.1562 134.71 22.9531C134.424 22.75 134.077 22.6484 133.671 22.6484C133.27 22.6484 132.921 22.75 132.624 22.9531C132.332 23.1562 132.106 23.4479 131.944 23.8281C131.788 24.2031 131.71 24.6562 131.71 25.1875V25.2031C131.71 25.724 131.791 26.1771 131.952 26.5625C132.114 26.9427 132.34 27.2344 132.632 27.4375C132.929 27.6406 133.275 27.7422 133.671 27.7422ZM139.89 29.5V17.6094H142.171V29.5H139.89ZM148.312 29.6797C147.442 29.6797 146.692 29.5 146.062 29.1406C145.437 28.776 144.955 28.2604 144.616 27.5938C144.278 26.9271 144.108 26.1328 144.108 25.2109V25.2031C144.108 24.2917 144.275 23.5 144.608 22.8281C144.947 22.1562 145.424 21.6354 146.038 21.2656C146.658 20.8958 147.384 20.7109 148.218 20.7109C149.056 20.7109 149.78 20.8906 150.39 21.25C150.999 21.6094 151.468 22.112 151.796 22.7578C152.124 23.4036 152.288 24.1615 152.288 25.0312V25.7422H145.249V24.3125H151.194L150.124 25.6641V24.75C150.124 24.2344 150.043 23.8047 149.882 23.4609C149.726 23.1172 149.507 22.8594 149.226 22.6875C148.95 22.5104 148.627 22.4219 148.257 22.4219C147.892 22.4219 147.567 22.513 147.28 22.6953C146.999 22.8724 146.775 23.1354 146.608 23.4844C146.447 23.8281 146.366 24.25 146.366 24.75V25.6719C146.366 26.1562 146.447 26.5703 146.608 26.9141C146.77 27.2578 146.999 27.5208 147.296 27.7031C147.593 27.8854 147.947 27.9766 148.358 27.9766C148.692 27.9766 148.976 27.9271 149.21 27.8281C149.444 27.7292 149.632 27.6146 149.772 27.4844C149.918 27.349 150.017 27.2266 150.069 27.1172L150.093 27.0703H152.218L152.202 27.1484C152.134 27.4193 152.012 27.7031 151.835 28C151.658 28.2917 151.413 28.5651 151.101 28.8203C150.793 29.0755 150.408 29.2839 149.944 29.4453C149.486 29.6016 148.942 29.6797 148.312 29.6797ZM161.415 27.532H167.047V29.26H153.703V27.532H159.303V25.34H155.239V20.348H163.463V18.764H155.223V17.084H165.543V21.996H157.335V23.644H165.879V25.34H161.415V27.532ZM180.194 20.028V16.46H182.162V30.236H180.194V25.404H178.146V23.708H180.194V21.708H178.418C177.762 24.14 176.29 26.188 173.538 27.82L172.338 26.348C175.25 24.572 176.53 22.444 176.802 19.564H173.17V17.884H178.898C178.898 18.636 178.85 19.34 178.77 20.028H180.194ZM183.218 16.124H185.218V30.876H183.218V16.124ZM199.857 20.572L199.089 22.22C196.609 21.868 194.817 20.844 193.889 19.372C192.961 20.828 191.169 21.868 188.705 22.22L187.921 20.572C191.233 20.172 192.817 18.492 192.817 16.828V16.396H194.977V16.828C194.977 18.54 196.529 20.172 199.857 20.572ZM188.737 27.66V25.996H198.977V30.892H196.865V27.66H188.737ZM194.961 23.276H200.593V24.956H187.265V23.276H192.849V21.372H194.961V23.276ZM206.24 26.14C207.232 26.14 207.952 25.468 207.952 24.332C207.952 23.228 207.232 22.54 206.24 22.54C205.248 22.54 204.512 23.228 204.512 24.348C204.512 25.468 205.248 26.14 206.24 26.14ZM206.24 20.828C208.368 20.828 209.952 22.284 209.952 24.332C209.952 26.412 208.368 27.868 206.24 27.868C204.096 27.868 202.496 26.412 202.496 24.332C202.496 22.284 204.096 20.828 206.24 20.828ZM207.28 16.396V18.316H210.48V19.996H201.904V18.316H205.168V16.396H207.28ZM215.664 21.9V23.644H213.552V30.876H211.44V16.14H213.552V21.9H215.664ZM217.519 17.66H224.591C224.591 22.172 223.071 25.852 217.839 28.38L216.735 26.716C220.495 24.908 222.127 22.604 222.431 19.34H217.519V17.66ZM226.847 16.124H228.975V30.86H226.847V16.124Z" fill="white"/>
</svg>
